<mxfile host="app.diagrams.net" modified="2023-09-24T04:08:17.402Z" agent="Mozilla/5.0 (Windows NT 10.0; Win64; x64) AppleWebKit/537.36 (KHTML, like Gecko) Chrome/117.0.0.0 Safari/537.36 Edg/117.0.2045.36" etag="xOPtr4590Z7PSWlKmNIR" version="21.8.1" type="github">
  <diagram name="Page-1" id="tu6NPlkqvIZWM3DF-N7S">
    <mxGraphModel dx="872" dy="491" grid="1" gridSize="10" guides="1" tooltips="1" connect="1" arrows="1" fold="1" page="1" pageScale="1" pageWidth="850" pageHeight="1100" math="0" shadow="0">
      <root>
        <mxCell id="0" />
        <mxCell id="1" parent="0" />
        <mxCell id="cYbcaErsQjwJsCacF38y-3" value="" style="edgeStyle=orthogonalEdgeStyle;rounded=0;orthogonalLoop=1;jettySize=auto;html=1;flowAnimation=1;" edge="1" parent="1" source="cYbcaErsQjwJsCacF38y-1" target="cYbcaErsQjwJsCacF38y-2">
          <mxGeometry relative="1" as="geometry" />
        </mxCell>
        <mxCell id="cYbcaErsQjwJsCacF38y-14" value="API Request with key" style="edgeLabel;html=1;align=center;verticalAlign=middle;resizable=0;points=[];" vertex="1" connectable="0" parent="cYbcaErsQjwJsCacF38y-3">
          <mxGeometry x="188" y="-2" relative="1" as="geometry">
            <mxPoint as="offset" />
          </mxGeometry>
        </mxCell>
        <mxCell id="cYbcaErsQjwJsCacF38y-1" value="&lt;font style=&quot;font-size: 14px;&quot;&gt;Client&lt;/font&gt;" style="rounded=0;whiteSpace=wrap;html=1;fillColor=#dae8fc;strokeColor=#6c8ebf;" vertex="1" parent="1">
          <mxGeometry x="120" y="50" width="120" height="40" as="geometry" />
        </mxCell>
        <mxCell id="cYbcaErsQjwJsCacF38y-5" value="" style="edgeStyle=orthogonalEdgeStyle;rounded=0;orthogonalLoop=1;jettySize=auto;html=1;flowAnimation=1;" edge="1" parent="1" source="cYbcaErsQjwJsCacF38y-2" target="cYbcaErsQjwJsCacF38y-4">
          <mxGeometry relative="1" as="geometry" />
        </mxCell>
        <mxCell id="cYbcaErsQjwJsCacF38y-15" value="Check API Key" style="edgeLabel;html=1;align=center;verticalAlign=middle;resizable=0;points=[];" vertex="1" connectable="0" parent="cYbcaErsQjwJsCacF38y-5">
          <mxGeometry x="0.44" y="1" relative="1" as="geometry">
            <mxPoint y="-14" as="offset" />
          </mxGeometry>
        </mxCell>
        <mxCell id="cYbcaErsQjwJsCacF38y-2" value="&lt;font style=&quot;font-size: 14px;&quot;&gt;API Gateway&lt;/font&gt;" style="rounded=0;whiteSpace=wrap;html=1;fillColor=#d5e8d4;strokeColor=#82b366;" vertex="1" parent="1">
          <mxGeometry x="120" y="125" width="120" height="40" as="geometry" />
        </mxCell>
        <mxCell id="cYbcaErsQjwJsCacF38y-7" value="" style="edgeStyle=orthogonalEdgeStyle;rounded=0;orthogonalLoop=1;jettySize=auto;html=1;flowAnimation=1;" edge="1" parent="1" source="cYbcaErsQjwJsCacF38y-4" target="cYbcaErsQjwJsCacF38y-6">
          <mxGeometry relative="1" as="geometry" />
        </mxCell>
        <mxCell id="cYbcaErsQjwJsCacF38y-4" value="&lt;font style=&quot;font-size: 14px;&quot;&gt;Usage Plan&lt;/font&gt;" style="rounded=0;whiteSpace=wrap;html=1;fillColor=#ffe6cc;strokeColor=#d79b00;" vertex="1" parent="1">
          <mxGeometry x="120" y="210" width="120" height="40" as="geometry" />
        </mxCell>
        <mxCell id="cYbcaErsQjwJsCacF38y-9" value="" style="edgeStyle=orthogonalEdgeStyle;rounded=0;orthogonalLoop=1;jettySize=auto;html=1;flowAnimation=1;strokeColor=#FF1434;" edge="1" parent="1" source="cYbcaErsQjwJsCacF38y-6" target="cYbcaErsQjwJsCacF38y-8">
          <mxGeometry relative="1" as="geometry" />
        </mxCell>
        <mxCell id="cYbcaErsQjwJsCacF38y-6" value="&lt;font style=&quot;font-size: 14px;&quot;&gt;Rate Limit &amp;amp; Quota&lt;/font&gt;" style="rounded=0;whiteSpace=wrap;html=1;fillColor=#fff2cc;strokeColor=#d6b656;" vertex="1" parent="1">
          <mxGeometry x="122" y="308" width="120" height="40" as="geometry" />
        </mxCell>
        <mxCell id="cYbcaErsQjwJsCacF38y-11" value="" style="edgeStyle=orthogonalEdgeStyle;rounded=0;orthogonalLoop=1;jettySize=auto;html=1;flowAnimation=1;" edge="1" parent="1" source="cYbcaErsQjwJsCacF38y-8" target="cYbcaErsQjwJsCacF38y-10">
          <mxGeometry relative="1" as="geometry" />
        </mxCell>
        <mxCell id="cYbcaErsQjwJsCacF38y-16" value="Forward to" style="edgeLabel;html=1;align=center;verticalAlign=middle;resizable=0;points=[];" vertex="1" connectable="0" parent="cYbcaErsQjwJsCacF38y-11">
          <mxGeometry x="0.4778" y="-1" relative="1" as="geometry">
            <mxPoint as="offset" />
          </mxGeometry>
        </mxCell>
        <mxCell id="cYbcaErsQjwJsCacF38y-13" value="" style="edgeStyle=orthogonalEdgeStyle;rounded=0;orthogonalLoop=1;jettySize=auto;html=1;flowAnimation=1;strokeColor=#857F2C;" edge="1" parent="1" source="cYbcaErsQjwJsCacF38y-8" target="cYbcaErsQjwJsCacF38y-12">
          <mxGeometry relative="1" as="geometry" />
        </mxCell>
        <mxCell id="cYbcaErsQjwJsCacF38y-17" value="Throttle Response" style="edgeLabel;html=1;align=center;verticalAlign=middle;resizable=0;points=[];" vertex="1" connectable="0" parent="cYbcaErsQjwJsCacF38y-13">
          <mxGeometry x="0.6688" relative="1" as="geometry">
            <mxPoint as="offset" />
          </mxGeometry>
        </mxCell>
        <mxCell id="cYbcaErsQjwJsCacF38y-8" value="&lt;font style=&quot;font-size: 14px;&quot;&gt;Alllow/Deny Request&lt;/font&gt;" style="rounded=0;whiteSpace=wrap;html=1;fillColor=#fff2cc;strokeColor=#d6b656;" vertex="1" parent="1">
          <mxGeometry x="310" y="50" width="120" height="40" as="geometry" />
        </mxCell>
        <mxCell id="cYbcaErsQjwJsCacF38y-10" value="&lt;font style=&quot;font-size: 14px;&quot;&gt;Backend Service&lt;/font&gt;" style="rounded=0;whiteSpace=wrap;html=1;fillColor=#e1d5e7;strokeColor=#9673a6;" vertex="1" parent="1">
          <mxGeometry x="460" y="160" width="120" height="40" as="geometry" />
        </mxCell>
        <mxCell id="cYbcaErsQjwJsCacF38y-12" value="&lt;font style=&quot;font-size: 14px;&quot;&gt;Client&lt;/font&gt;" style="rounded=0;whiteSpace=wrap;html=1;fillColor=#dae8fc;strokeColor=#6c8ebf;" vertex="1" parent="1">
          <mxGeometry x="600" y="160" width="120" height="40" as="geometry" />
        </mxCell>
        <mxCell id="cYbcaErsQjwJsCacF38y-22" value="&lt;font color=&quot;#404040&quot; style=&quot;font-size: 23px;&quot;&gt;Basic Rate Limiting Flow&lt;/font&gt;" style="text;html=1;strokeColor=none;fillColor=none;align=center;verticalAlign=middle;whiteSpace=wrap;rounded=0;" vertex="1" parent="1">
          <mxGeometry x="320" y="360" width="330" height="30" as="geometry" />
        </mxCell>
      </root>
    </mxGraphModel>
  </diagram>
</mxfile>
